<svg width="178.634" height="13.9" viewBox="0 0 178.634 13.9" xmlns="http://www.w3.org/2000/svg"><g id="svgGroup" stroke-linecap="round" fill-rule="evenodd" font-size="9pt" stroke="#4f74b8" stroke-width="0.25mm" fill="#000" style="stroke:#4f74b8;stroke-width:0.25mm;fill:#000"><path d="M 153.9 13.7 L 152.467 13.7 L 152.467 0.2 L 154.767 0.2 L 159.117 11.534 L 159.183 11.534 L 163.55 0.2 L 165.833 0.2 L 165.833 13.7 L 164.3 13.7 L 164.3 1.884 L 164.233 1.884 L 159.733 13.7 L 158.467 13.7 L 153.967 1.867 L 153.9 1.867 L 153.9 13.7 Z M 138.35 13.7 L 136.65 13.7 L 133.167 0.2 L 134.8 0.2 L 137.517 11.8 L 137.583 11.8 L 140.7 0.2 L 142.3 0.2 L 145.567 11.8 L 145.633 11.8 L 148.333 0.2 L 149.967 0.2 L 146.483 13.7 L 144.783 13.7 L 141.517 2.05 L 141.45 2.05 L 138.35 13.7 Z M 88.667 13.7 L 87.167 13.7 L 87.167 3.7 L 88.667 3.7 L 88.667 5.367 L 88.733 5.367 A 3.086 3.086 0 0 1 89.231 4.531 A 2.693 2.693 0 0 1 89.85 3.992 A 3.03 3.03 0 0 1 91.015 3.563 A 3.98 3.98 0 0 1 91.633 3.517 A 3.572 3.572 0 0 1 92.748 3.686 A 3.167 3.167 0 0 1 93.467 4.025 Q 94.267 4.534 94.683 5.5 L 94.733 5.5 A 3.845 3.845 0 0 1 95.305 4.625 A 3.207 3.207 0 0 1 96.008 4.025 A 3.327 3.327 0 0 1 97.54 3.53 A 4.116 4.116 0 0 1 97.867 3.517 A 3.857 3.857 0 0 1 98.874 3.643 A 3.181 3.181 0 0 1 99.708 4 A 3.206 3.206 0 0 1 100.902 5.305 A 3.846 3.846 0 0 1 100.933 5.367 A 4.112 4.112 0 0 1 101.284 6.461 A 5.626 5.626 0 0 1 101.367 7.45 L 101.367 13.7 L 99.867 13.7 L 99.867 7.65 A 4.346 4.346 0 0 0 99.798 6.85 Q 99.712 6.396 99.523 6.039 A 2.219 2.219 0 0 0 99.225 5.609 A 2.103 2.103 0 0 0 97.954 4.923 A 3.062 3.062 0 0 0 97.45 4.884 Q 96.333 4.884 95.675 5.609 A 2.378 2.378 0 0 0 95.161 6.546 Q 95.053 6.911 95.026 7.349 A 4.868 4.868 0 0 0 95.017 7.65 L 95.017 13.7 L 93.517 13.7 L 93.517 7.65 A 4.346 4.346 0 0 0 93.448 6.85 Q 93.362 6.396 93.173 6.039 A 2.219 2.219 0 0 0 92.875 5.609 A 2.103 2.103 0 0 0 91.604 4.923 A 3.062 3.062 0 0 0 91.1 4.884 Q 89.983 4.884 89.325 5.609 A 2.378 2.378 0 0 0 88.811 6.546 Q 88.703 6.911 88.676 7.349 A 4.868 4.868 0 0 0 88.667 7.65 L 88.667 13.7 Z M 74.45 9.7 L 76.083 9.7 A 3.427 3.427 0 0 0 76.325 10.664 A 2.639 2.639 0 0 0 77.208 11.784 A 3.471 3.471 0 0 0 78.38 12.332 Q 79.008 12.5 79.783 12.5 A 5.897 5.897 0 0 0 80.672 12.438 Q 81.138 12.366 81.514 12.215 A 2.601 2.601 0 0 0 82.142 11.859 A 2.084 2.084 0 0 0 82.955 10.329 A 2.973 2.973 0 0 0 82.967 10.067 A 2.406 2.406 0 0 0 82.857 9.326 A 1.978 1.978 0 0 0 82.375 8.534 Q 81.937 8.089 81.138 7.828 A 5.908 5.908 0 0 0 80.533 7.667 L 78.45 7.217 A 6.747 6.747 0 0 1 77.373 6.896 Q 76.786 6.663 76.338 6.331 A 3.609 3.609 0 0 1 75.933 5.984 A 2.982 2.982 0 0 1 75.061 4.027 A 3.997 3.997 0 0 1 75.05 3.734 A 3.687 3.687 0 0 1 75.24 2.534 A 3.318 3.318 0 0 1 75.592 1.809 A 3.569 3.569 0 0 1 76.771 0.68 A 4.438 4.438 0 0 1 77.133 0.484 Q 78.133 0 79.483 0 A 6.617 6.617 0 0 1 80.698 0.106 A 4.9 4.9 0 0 1 81.925 0.5 Q 82.967 1 83.6 1.9 Q 84.233 2.8 84.367 4 L 82.733 4 A 3.704 3.704 0 0 0 82.479 3.126 A 2.65 2.65 0 0 0 81.65 2.059 A 3.103 3.103 0 0 0 80.484 1.52 Q 79.989 1.4 79.4 1.4 A 4.536 4.536 0 0 0 78.542 1.477 Q 77.835 1.613 77.333 1.992 A 1.888 1.888 0 0 0 76.562 3.365 A 2.524 2.524 0 0 0 76.55 3.617 A 1.97 1.97 0 0 0 76.724 4.451 A 1.932 1.932 0 0 0 77.108 5 A 2.276 2.276 0 0 0 77.614 5.378 Q 78.116 5.662 78.884 5.839 A 7.702 7.702 0 0 0 78.933 5.85 L 81.1 6.334 Q 82.334 6.602 83.116 7.162 A 3.353 3.353 0 0 1 83.625 7.609 A 3.116 3.116 0 0 1 84.419 9.297 A 4.309 4.309 0 0 1 84.467 9.95 A 4.12 4.12 0 0 1 84.252 11.307 A 3.483 3.483 0 0 1 83.217 12.817 Q 81.967 13.9 79.733 13.9 A 7.615 7.615 0 0 1 78.388 13.787 A 5.617 5.617 0 0 1 77.025 13.367 A 4.824 4.824 0 0 1 75.877 12.638 A 4.168 4.168 0 0 1 75.2 11.892 Q 74.533 10.95 74.45 9.7 Z M 168.617 9.7 L 170.25 9.7 A 3.427 3.427 0 0 0 170.491 10.664 A 2.639 2.639 0 0 0 171.375 11.784 A 3.471 3.471 0 0 0 172.547 12.332 Q 173.175 12.5 173.95 12.5 A 5.897 5.897 0 0 0 174.839 12.438 Q 175.304 12.366 175.68 12.215 A 2.601 2.601 0 0 0 176.308 11.859 A 2.084 2.084 0 0 0 177.122 10.329 A 2.973 2.973 0 0 0 177.133 10.067 A 2.406 2.406 0 0 0 177.024 9.326 A 1.978 1.978 0 0 0 176.542 8.534 Q 176.104 8.089 175.305 7.828 A 5.908 5.908 0 0 0 174.7 7.667 L 172.617 7.217 A 6.747 6.747 0 0 1 171.54 6.896 Q 170.953 6.663 170.505 6.331 A 3.609 3.609 0 0 1 170.1 5.984 A 2.982 2.982 0 0 1 169.227 4.027 A 3.997 3.997 0 0 1 169.217 3.734 A 3.687 3.687 0 0 1 169.407 2.534 A 3.318 3.318 0 0 1 169.758 1.809 A 3.569 3.569 0 0 1 170.938 0.68 A 4.438 4.438 0 0 1 171.3 0.484 Q 172.3 0 173.65 0 A 6.617 6.617 0 0 1 174.864 0.106 A 4.9 4.9 0 0 1 176.092 0.5 Q 177.133 1 177.767 1.9 Q 178.4 2.8 178.533 4 L 176.9 4 A 3.704 3.704 0 0 0 176.646 3.126 A 2.65 2.65 0 0 0 175.817 2.059 A 3.103 3.103 0 0 0 174.651 1.52 Q 174.156 1.4 173.567 1.4 A 4.536 4.536 0 0 0 172.709 1.477 Q 172.002 1.613 171.5 1.992 A 1.888 1.888 0 0 0 170.729 3.365 A 2.524 2.524 0 0 0 170.717 3.617 A 1.97 1.97 0 0 0 170.891 4.451 A 1.932 1.932 0 0 0 171.275 5 A 2.276 2.276 0 0 0 171.781 5.378 Q 172.282 5.662 173.05 5.839 A 7.702 7.702 0 0 0 173.1 5.85 L 175.267 6.334 Q 176.501 6.602 177.282 7.162 A 3.353 3.353 0 0 1 177.792 7.609 A 3.116 3.116 0 0 1 178.586 9.297 A 4.309 4.309 0 0 1 178.633 9.95 A 4.12 4.12 0 0 1 178.419 11.307 A 3.483 3.483 0 0 1 177.383 12.817 Q 176.133 13.9 173.9 13.9 A 7.615 7.615 0 0 1 172.554 13.787 A 5.617 5.617 0 0 1 171.192 13.367 A 4.824 4.824 0 0 1 170.044 12.638 A 4.168 4.168 0 0 1 169.367 11.892 Q 168.7 10.95 168.617 9.7 Z M 33.333 13.7 L 31.8 13.7 L 31.8 0.2 L 37.383 0.2 A 5.791 5.791 0 0 1 38.458 0.295 A 4.357 4.357 0 0 1 39.517 0.634 A 3.328 3.328 0 0 1 40.95 1.892 A 3.307 3.307 0 0 1 41.388 3.03 A 4.577 4.577 0 0 1 41.467 3.9 A 3.651 3.651 0 0 1 41.282 5.073 A 3.377 3.377 0 0 1 41.108 5.492 A 2.811 2.811 0 0 1 40.342 6.435 A 3.598 3.598 0 0 1 39.967 6.7 L 39.967 6.784 A 2.102 2.102 0 0 1 40.411 6.828 Q 40.694 6.889 40.907 7.035 A 1.198 1.198 0 0 1 41.075 7.175 A 1.276 1.276 0 0 1 41.402 7.755 Q 41.467 7.992 41.467 8.284 L 41.467 13.7 L 39.933 13.7 L 39.933 8.034 L 33.333 8.034 L 33.333 13.7 Z M 1.567 13.7 L 0 13.7 L 5.267 0.2 L 7.067 0.2 L 12.3 13.7 L 10.7 13.7 L 9.117 9.434 L 3.167 9.434 L 1.567 13.7 Z M 107.183 7.934 L 110.267 7.934 L 110.267 7.4 A 3.8 3.8 0 0 0 110.198 6.652 Q 110.056 5.948 109.625 5.5 Q 108.983 4.834 107.817 4.834 Q 106.966 4.834 106.386 5.176 A 2.065 2.065 0 0 0 106.233 5.275 A 1.975 1.975 0 0 0 105.493 6.311 A 2.598 2.598 0 0 0 105.433 6.534 L 103.9 6.534 A 3.316 3.316 0 0 1 105.2 4.325 A 3.99 3.99 0 0 1 107.016 3.565 A 5.356 5.356 0 0 1 107.867 3.5 Q 109.667 3.5 110.683 4.492 A 3.238 3.238 0 0 1 111.557 6.047 Q 111.7 6.609 111.7 7.284 L 111.7 13.7 L 110.267 13.7 L 110.267 11.85 L 110.2 11.85 A 3.128 3.128 0 0 1 108.95 13.334 Q 108.083 13.884 107.017 13.884 A 4.226 4.226 0 0 1 105.953 13.756 A 3.124 3.124 0 0 1 104.625 13.05 A 2.733 2.733 0 0 1 103.704 11.063 A 3.624 3.624 0 0 1 103.7 10.9 A 3.463 3.463 0 0 1 103.817 9.974 A 2.505 2.505 0 0 1 104.608 8.717 A 2.983 2.983 0 0 1 105.696 8.132 Q 106.141 7.996 106.677 7.953 A 6.371 6.371 0 0 1 107.183 7.934 Z M 21.167 13.7 L 19.633 13.7 L 19.633 0.2 L 24.85 0.2 Q 26.652 0.2 27.775 1.079 A 3.68 3.68 0 0 1 28.033 1.3 A 3.634 3.634 0 0 1 29.118 3.347 A 5.273 5.273 0 0 1 29.2 4.3 A 4.877 4.877 0 0 1 29.035 5.604 A 3.591 3.591 0 0 1 28.025 7.292 A 3.936 3.936 0 0 1 26.181 8.257 A 5.841 5.841 0 0 1 24.85 8.4 L 21.167 8.4 L 21.167 13.7 Z M 127.167 13.7 L 124.383 13.7 A 2.009 2.009 0 0 1 123.958 13.658 Q 123.672 13.596 123.458 13.444 A 1.199 1.199 0 0 1 123.333 13.342 A 1.129 1.129 0 0 1 123.03 12.847 Q 122.973 12.665 122.956 12.445 A 2.434 2.434 0 0 1 122.95 12.267 L 122.95 4.9 L 121.2 4.9 L 121.2 3.7 L 122.967 3.7 L 122.967 0.7 L 124.433 0.7 L 124.433 3.7 L 126.933 3.7 L 126.933 4.9 L 124.45 4.9 L 124.45 12.5 L 127.167 12.5 L 127.167 13.7 Z M 48.303 13.581 A 6.215 6.215 0 0 0 50.317 13.9 A 7.112 7.112 0 0 0 50.868 13.879 A 5.774 5.774 0 0 0 53.483 13.05 Q 54.867 12.2 55.667 10.634 A 7.055 7.055 0 0 0 56.297 8.785 A 9.442 9.442 0 0 0 56.467 6.95 A 9.813 9.813 0 0 0 56.315 5.182 A 7.072 7.072 0 0 0 55.675 3.242 A 6.908 6.908 0 0 0 55.521 2.956 A 5.722 5.722 0 0 0 53.492 0.842 A 5.654 5.654 0 0 0 52.242 0.28 A 6.442 6.442 0 0 0 50.317 0 A 7.067 7.067 0 0 0 49.881 0.013 A 5.829 5.829 0 0 0 47.158 0.85 A 5.67 5.67 0 0 0 46.225 1.561 A 6.181 6.181 0 0 0 44.967 3.259 A 7.024 7.024 0 0 0 44.32 5.194 A 9.603 9.603 0 0 0 44.167 6.95 Q 44.167 9.067 44.967 10.625 Q 45.767 12.184 47.158 13.042 A 5.621 5.621 0 0 0 48.303 13.581 Z M 116.533 13.7 L 115.033 13.7 L 115.033 3.7 L 116.45 3.7 L 116.45 5.817 L 116.517 5.817 Q 116.85 4.834 117.642 4.234 A 2.928 2.928 0 0 1 118.994 3.676 A 3.915 3.915 0 0 1 119.583 3.634 L 120.3 3.634 L 120.3 4.967 L 119.5 4.967 A 3.437 3.437 0 0 0 118.574 5.085 A 2.468 2.468 0 0 0 117.308 5.9 A 3.179 3.179 0 0 0 116.695 7.11 Q 116.533 7.702 116.533 8.434 L 116.533 13.7 Z M 50.317 12.5 A 4.767 4.767 0 0 0 51.625 12.327 A 3.951 3.951 0 0 0 52.75 11.809 Q 53.783 11.117 54.342 9.867 A 6.24 6.24 0 0 0 54.793 8.329 A 8.49 8.49 0 0 0 54.9 6.95 A 8.566 8.566 0 0 0 54.785 5.514 A 6.209 6.209 0 0 0 54.342 4.017 A 4.78 4.78 0 0 0 53.592 2.823 A 4.12 4.12 0 0 0 52.75 2.084 A 4.111 4.111 0 0 0 50.953 1.438 A 5.256 5.256 0 0 0 50.317 1.4 A 4.822 4.822 0 0 0 49.048 1.56 A 3.926 3.926 0 0 0 47.892 2.084 A 4.315 4.315 0 0 0 46.549 3.532 A 5.396 5.396 0 0 0 46.3 4.017 A 6.166 6.166 0 0 0 45.842 5.559 A 8.489 8.489 0 0 0 45.733 6.95 A 8.289 8.289 0 0 0 45.856 8.41 A 6.127 6.127 0 0 0 46.3 9.867 A 4.935 4.935 0 0 0 47.054 11.063 A 4.225 4.225 0 0 0 47.892 11.809 A 4.033 4.033 0 0 0 49.681 12.462 A 5.182 5.182 0 0 0 50.317 12.5 Z M 15.833 13.7 L 14.3 13.7 L 14.3 0.2 L 15.833 0.2 L 15.833 13.7 Z M 21.167 1.534 L 21.167 7.067 L 24.783 7.067 A 3.825 3.825 0 0 0 25.67 6.97 A 2.576 2.576 0 0 0 26.892 6.317 A 2.496 2.496 0 0 0 27.618 4.903 A 3.576 3.576 0 0 0 27.667 4.3 A 3.434 3.434 0 0 0 27.567 3.448 A 2.416 2.416 0 0 0 26.892 2.275 A 2.586 2.586 0 0 0 25.67 1.629 Q 25.264 1.534 24.787 1.534 A 3.501 3.501 0 0 0 24.783 1.534 L 21.167 1.534 Z M 33.333 1.534 L 33.333 6.734 L 37.217 6.734 A 3.568 3.568 0 0 0 38.08 6.635 A 2.536 2.536 0 0 0 39.183 6.059 A 2.191 2.191 0 0 0 39.853 4.892 A 3.356 3.356 0 0 0 39.933 4.134 A 3.331 3.331 0 0 0 39.847 3.35 A 2.185 2.185 0 0 0 39.183 2.209 A 2.57 2.57 0 0 0 37.948 1.603 A 3.682 3.682 0 0 0 37.217 1.534 L 33.333 1.534 Z M 6.117 1.6 L 3.683 8.034 L 8.6 8.034 L 6.183 1.6 L 6.117 1.6 Z M 110.267 9.617 L 110.267 9.134 L 107.3 9.134 A 4.173 4.173 0 0 0 106.689 9.175 Q 106.047 9.271 105.658 9.584 A 1.466 1.466 0 0 0 105.111 10.615 A 2.096 2.096 0 0 0 105.1 10.834 A 1.717 1.717 0 0 0 105.207 11.451 A 1.526 1.526 0 0 0 105.7 12.109 Q 106.229 12.527 107.082 12.577 A 4.049 4.049 0 0 0 107.317 12.584 A 3.042 3.042 0 0 0 108.313 12.424 A 2.773 2.773 0 0 0 108.817 12.192 A 2.909 2.909 0 0 0 109.875 11.125 A 2.926 2.926 0 0 0 110.265 9.72 A 3.484 3.484 0 0 0 110.267 9.617 Z M 67.867 9.367 L 63.267 9.367 L 63.267 8.034 L 67.867 8.034 L 67.867 9.367 Z" vector-effect="non-scaling-stroke"/></g></svg>
